<svg width="16" height="23" viewBox="0 0 16 23" fill="none" xmlns="http://www.w3.org/2000/svg">
<path d="M0 4.05885C0 1.81803 1.79122 0 3.99899 0H11.997C14.2048 0 15.996 1.81803 15.996 4.05885V14.8824C15.996 16.5779 14.9712 18.0323 13.5174 18.6369L15.7627 21.3301C16.1209 21.7571 16.0668 22.3998 15.6461 22.7591C15.2253 23.1185 14.5922 23.0678 14.2381 22.6408L11.1555 18.9413H4.85295L1.77039 22.6408C1.41214 23.0678 0.783136 23.1228 0.362409 22.7591C-0.0583188 22.3955 -0.112472 21.7571 0.245771 21.3301L2.49104 18.6369C1.02474 18.0323 0 16.5779 0 14.8824V4.05885ZM2.666 5.4118V9.47065C2.666 10.219 3.26168 10.8236 3.99899 10.8236H11.997C12.7343 10.8236 13.33 10.219 13.33 9.47065V5.4118C13.33 4.66345 12.7343 4.05885 11.997 4.05885H3.99899C3.26168 4.05885 2.666 4.66345 2.666 5.4118ZM7.99799 16.2354C8.7353 16.2354 9.33099 15.6308 9.33099 14.8824C9.33099 14.1341 8.7353 13.5295 7.99799 13.5295C7.26067 13.5295 6.66499 14.1341 6.66499 14.8824C6.66499 15.6308 7.26067 16.2354 7.99799 16.2354Z" fill="#FF9F10"/>
</svg>
