<svg width="16" height="21" viewBox="0 0 16 21" fill="none" xmlns="http://www.w3.org/2000/svg">
<path d="M0.00416552 7.69049C0.00416552 3.44155 3.58657 0 8.00208 0C12.4176 0 16 3.44155 16 7.69049C16 12.5551 10.993 18.3862 8.90185 20.6085C8.41031 21.1305 7.58969 21.1305 7.09815 20.6085C5.00703 18.3862 0 12.5551 0 7.69049H0.00416552ZM8.00208 10.4388C9.47253 10.4388 10.6681 9.26854 10.6681 7.82913C10.6681 6.38971 9.47253 5.21942 8.00208 5.21942C6.53163 5.21942 5.33611 6.38971 5.33611 7.82913C5.33611 9.26854 6.53163 10.4388 8.00208 10.4388Z" fill="#FF9F10"/>
</svg>
