<svg width="16" height="18" viewBox="0 0 16 18" fill="none" xmlns="http://www.w3.org/2000/svg">
<path d="M3.42857 0C1.53571 0 0 1.51172 0 3.375V13.5C0 14.5477 0.728571 15.4301 1.71429 15.6797V16.875C1.71429 17.4973 2.225 18 2.85714 18H3.42857C4.06071 18 4.57143 17.4973 4.57143 16.875V15.75H11.4286V16.875C11.4286 17.4973 11.9393 18 12.5714 18H13.1429C13.775 18 14.2857 17.4973 14.2857 16.875V15.6797C15.2714 15.4301 16 14.5477 16 13.5V3.375C16 1.51172 14.4643 0 12.5714 0H3.42857ZM2.28571 6.1875C2.28571 5.56523 2.79643 5.0625 3.42857 5.0625H7.14286V9H3.42857C2.79643 9 2.28571 8.49727 2.28571 7.875V6.1875ZM8.85714 9V5.0625H12.5714C13.2036 5.0625 13.7143 5.56523 13.7143 6.1875V7.875C13.7143 8.49727 13.2036 9 12.5714 9H8.85714ZM3.42857 11.25C4.06071 11.25 4.57143 11.7527 4.57143 12.375C4.57143 12.9973 4.06071 13.5 3.42857 13.5C2.79643 13.5 2.28571 12.9973 2.28571 12.375C2.28571 11.7527 2.79643 11.25 3.42857 11.25ZM12.5714 11.25C13.2036 11.25 13.7143 11.7527 13.7143 12.375C13.7143 12.9973 13.2036 13.5 12.5714 13.5C11.9393 13.5 11.4286 12.9973 11.4286 12.375C11.4286 11.7527 11.9393 11.25 12.5714 11.25ZM5.42857 2.53125C5.42857 2.06367 5.81071 1.6875 6.28571 1.6875H9.71429C10.1893 1.6875 10.5714 2.06367 10.5714 2.53125C10.5714 2.99883 10.1893 3.375 9.71429 3.375H6.28571C5.81071 3.375 5.42857 2.99883 5.42857 2.53125Z" fill="#FF9F10"/>
</svg>
