<?xml version="1.0" encoding="UTF-8" standalone="no"?>
<!-- Created with Inkscape (http://www.inkscape.org/) -->

<svg
   width="32"
   height="32"
   viewBox="0 0 32 32"
   version="1.1"
   id="svg1"
   inkscape:version="1.4.2 (ebf0e940d0, 2025-05-08)"
   sodipodi:docname="icon-link.svg"
   xmlns:inkscape="http://www.inkscape.org/namespaces/inkscape"
   xmlns:sodipodi="http://sodipodi.sourceforge.net/DTD/sodipodi-0.dtd"
   xmlns="http://www.w3.org/2000/svg"
   xmlns:svg="http://www.w3.org/2000/svg">
  <sodipodi:namedview
     id="namedview1"
     pagecolor="#ffffff"
     bordercolor="#000000"
     borderopacity="0.25"
     inkscape:showpageshadow="2"
     inkscape:pageopacity="0.0"
     inkscape:pagecheckerboard="0"
     inkscape:deskcolor="#d1d1d1"
     inkscape:document-units="px"
     inkscape:zoom="8.587619"
     inkscape:cx="19.912388"
     inkscape:cy="22.998226"
     inkscape:window-width="1600"
     inkscape:window-height="863"
     inkscape:window-x="0"
     inkscape:window-y="0"
     inkscape:window-maximized="1"
     inkscape:current-layer="layer1" />
  <defs
     id="defs1" />
  <g
     inkscape:label="Camada 1"
     inkscape:groupmode="layer"
     id="layer1">
    <path
       style="font-size:33.3686px;font-family:dashicons;-inkscape-font-specification:dashicons;fill:#f56530;stroke-width:0.940529"
       d="m 29.64868,2.3880634 q 1.543054,1.5430536 2.057406,3.6739371 0.58783,2.0574047 0,4.1882885 -0.514352,2.057404 -2.057406,3.600458 l -2.86567,2.865672 q -1.543054,1.543053 -3.673938,2.057404 -2.057405,0.514351 -4.114809,0 l 7.788747,-7.788747 q 1.175659,-1.1756591 1.175659,-2.8656708 0,-1.690011 -1.175659,-2.8656709 -1.17566,-1.1756598 -2.865671,-1.1756598 -1.690011,0 -2.865672,1.1756598 l -7.788746,7.7887467 q -0.514351,-2.057405 0,-4.1148096 0.514351,-2.1308835 2.057406,-3.6739371 l 2.86567,-2.8656709 q 1.543053,-1.54305361 3.600459,-2.05740481 2.130883,-0.58782997 4.188288,0 2.130883,0.5143512 3.673936,2.05740481 z M 12.454656,22.44776 22.521243,12.381172 q 0.587829,-0.58783 0.587829,-1.396096 0,-0.881745 -0.661308,-1.4695751 -0.58783,-0.5878295 -1.469575,-0.5143507 -0.808266,0 -1.396096,0.5143507 L 9.5889836,19.58209 q -0.587829,0.58783 -0.587829,1.469575 0,0.808266 0.587829,1.396095 0.5878304,0.587831 1.3960964,0.587831 0.881746,-0.07347 1.469576,-0.587831 z m -1.469576,4.261767 7.788747,-7.788747 q 0.587829,2.057405 0.07347,4.188289 -0.514352,2.057405 -2.057404,3.600458 l -2.865671,2.865671 q -1.616532,1.616533 -3.673938,2.130883 -2.0574054,0.514351 -4.1882884,0 -2.0574047,-0.51435 -3.6739371,-2.057404 -1.54305357,-1.616532 -2.13088357,-3.673937 -0.5143511,-2.130884 0,-4.188288 0.58783,-2.130883 2.13088357,-3.673938 l 2.9391496,-2.865671 q 1.5430535,-1.543053 3.6004585,-2.057404 2.0574054,-0.514352 4.1882884,0 l -7.7887429,7.788746 q -1.2491385,1.17566 -1.2491385,2.865671 0,1.690011 1.1756599,2.93915 1.2491386,1.17566 2.8656701,1.17566 1.690011,0 2.8656724,-1.249139 z"
       id="text1"
       aria-label="" />
  </g>
</svg>
