<svg width="16" height="15" viewBox="0 0 16 15" fill="none" xmlns="http://www.w3.org/2000/svg">
<path d="M6 0C5.44688 0 5 0.446875 5 1V2H4.72188C3.40938 2 2.25 2.85312 1.85938 4.10625L1.14062 6.40312C0.453125 6.84687 0 7.62187 0 8.5V14C0 14.5531 0.446875 15 1 15H2C2.55312 15 3 14.5531 3 14V13H13V14C13 14.5531 13.4469 15 14 15H15C15.5531 15 16 14.5531 16 14V8.5C16 7.62187 15.5469 6.84687 14.8625 6.40312L14.1437 4.10625C13.7531 2.85312 12.5906 2 11.2781 2H11V1C11 0.446875 10.5531 0 10 0H6ZM4.72188 4H11.2812C11.7188 4 12.1062 4.28438 12.2344 4.70312L12.6406 6H3.3625L3.76875 4.70312C3.9 4.28438 4.28438 4 4.72188 4ZM3 8.5C3.55312 8.5 4 8.94687 4 9.5C4 10.0531 3.55312 10.5 3 10.5C2.44688 10.5 2 10.0531 2 9.5C2 8.94687 2.44688 8.5 3 8.5ZM12 9.5C12 8.94687 12.4469 8.5 13 8.5C13.5531 8.5 14 8.94687 14 9.5C14 10.0531 13.5531 10.5 13 10.5C12.4469 10.5 12 10.0531 12 9.5Z" fill="#FF9F10"/>
</svg>
