<?xml version="1.0" encoding="UTF-8" standalone="no"?>
<!-- Created with Inkscape (http://www.inkscape.org/) -->

<svg
   width="32"
   height="32"
   viewBox="0 0 32 32"
   version="1.1"
   id="svg1"
   sodipodi:docname="icon-wordpress.svg"
   inkscape:version="1.4.2 (ebf0e940d0, 2025-05-08)"
   xmlns:inkscape="http://www.inkscape.org/namespaces/inkscape"
   xmlns:sodipodi="http://sodipodi.sourceforge.net/DTD/sodipodi-0.dtd"
   xmlns="http://www.w3.org/2000/svg"
   xmlns:svg="http://www.w3.org/2000/svg">
  <sodipodi:namedview
     id="namedview1"
     pagecolor="#ffffff"
     bordercolor="#000000"
     borderopacity="0.25"
     inkscape:showpageshadow="2"
     inkscape:pageopacity="0.0"
     inkscape:pagecheckerboard="0"
     inkscape:deskcolor="#d1d1d1"
     inkscape:document-units="px"
     inkscape:zoom="8.587619"
     inkscape:cx="19.912388"
     inkscape:cy="22.998226"
     inkscape:window-width="1600"
     inkscape:window-height="863"
     inkscape:window-x="0"
     inkscape:window-y="0"
     inkscape:window-maximized="1"
     inkscape:current-layer="layer1" />
  <defs
     id="defs1" />
  <g
     inkscape:label="Camada 1"
     inkscape:groupmode="layer"
     id="layer1">
    <path
       style="font-size:33.3686px;font-family:dashicons;-inkscape-font-specification:dashicons;fill:#f56530;stroke-width:0.800001"
       d="M 32,16 Q 32,11.625 29.8125,8 27.6875,4.3125 24,2.1875 20.375,-4.9999999e-8 16,-4.9999999e-8 11.625,-4.9999999e-8 7.9375,2.1875 4.3125,4.3125 2.125,8 0,11.625 0,16 0,20.375 2.125,24.0625 4.3125,27.6875 7.9375,29.875 11.625,32 16,32 q 4.375,0 8,-2.125 3.6875,-2.1875 5.8125,-5.8125 Q 32,20.375 32,16 Z M 16,1.625 q 3.9375,0 7.1875,1.9375 Q 26.5,5.5 28.4375,8.8125001 30.375,12.0625 30.375,16 q 0,3.9375 -1.9375,7.25 -1.9375,3.25 -5.25,5.1875 -3.25,1.9375 -7.1875,1.9375 -3.9375,0 -7.25,-1.9375 Q 5.4999999,26.5 3.5625,23.25 1.625,19.9375 1.625,16 1.625,12.0625 3.5625,8.8125 5.4999999,5.5 8.75,3.5625 12.0625,1.625 16,1.625 Z m -3.1875,22.0625 -4.875,-13.125 1.6875001,-0.125 q 0.3124998,0 0.4374999,-0.375 Q 10.1875,9.625 10,9.2500001 9.8749999,8.875 9.5,8.875 L 8.3125,8.9375 Q 6.9375,9 6.125,9 H 5.25 Q 7.0625,6.375 9.8749999,4.8125 12.6875,3.2500001 16,3.2500001 q 2.4375,0 4.6875,0.8749999 2.25,0.875 3.9375,2.4375001 -0.8125,-0.0625 -1.5,0.4999999 -0.8125,0.6250001 -0.8125,1.8125 0,0.6250001 0.375,1.375 0.1875,0.5 0.75,1.4375 l 0.1875,0.187499 q 0.75,1.375 0.75,3.562501 0,1.3125 -1,4.375 -0.5,1.5 -1,2.75 v 0 l -4.3125,-12 q 0.4375,0 0.875,-0.125 l 0.3125,-0.125 q 0.3125,0 0.375,-0.4375 Q 19.75,9.4375 19.625,9 19.5,8.5625 19.125,8.5625 l -1.1875,0.1250001 q -1.375,0.0625 -2.1875,0.0625 -0.8125,0 -2.1875,-0.0625 L 12.375,8.5625 Q 12,8.5625 11.875,9 11.75,9.4375 11.8125,9.875 q 0.125001,0.4375 0.437501,0.4375 l 1.375,0.125 1.8125,4.875 z M 22.4375,27.125 26.625,16 26.875,15.1875 Q 27.187499,14.125 27.3125,13 27.4375,11.4375 27.25,9.875 q 1.5,2.75 1.5,6.187499 Q 28.75,19.5 26.999999,22.5 25.3125,25.4375 22.4375,27.125 Z M 4.3125,10.8125 10.375,27.625 Q 7.1875,26 5.1875,22.875 3.25,19.75 3.25,16 q 0,-2.875 1.0625,-5.1875 z m 11.875,7.25 3.6875,10 Q 18,28.75 16,28.75 q -1.625,0 -3.3125,-0.5 z"
       id="text1"
       aria-label="" />
  </g>
</svg>
